:SAMPLES-PER-SECOND 30
:FRAME-RANGE 1-3535
:FULLY-SPECIFIED
:DEGREES
2210
root  -25.9918 34.7886 -28.8907 -166.962 28.8047 -178.516
RightUpLeg  -45.0942 -4.80604 17.2502
RightLeg  50.326 -12.5076 -15.9865
RightFoot  -21.0168 -0.698308 -6.56358
RightToes  1.22775e-009 1.2921e-014 -6.02303e-014
Spine  19.8343 -3.29948 13.5914
Spine1  5.16961 -0.524477 0.623237
HEad  -16.1666 -3.90596 -3.31242
LeftShoulder1  1.98585 -1.2941 -35.3193
LeftArm  -5.06681 11.5904 -32.2693
LeftForeArm  24.2976 -1.08406 -16.0263
LeftHand  0.0905775 -1.68047 -1.3433
RightShoulder  8.03633 9.85538 52.6398
RightArm  -12.8755 1.93663 9.53422
RightForeArm  -7.48369 7.0341 13.5996
RightHand  0.360964 1.07031 6.3971
LeftUpLeg  0.222625 7.15143 6.08362
LeftLeg  64.8137 1.35118 3.81527
LeftFoot  3.01143 1.82645 -14.5871
LeftToes  2.52163e-011 5.65494e-011 -1.09494e-012
2211
root  -25.5872 34.4953 -31.5926 -166.826 29.5389 -178.602
RightUpLeg  -42.9576 -5.43488 15.0013
RightLeg  55.3746 -10.6121 -16.4425
RightFoot  -27.1592 -0.50257 -2.29159
RightToes  1.22775e-009 1.2921e-014 -6.02303e-014
Spine  18.5734 -2.19509 15.6043
Spine1  6.70624 0.693035 1.17165
HEad  -18.0438 -8.38926 -1.38571
LeftShoulder1  1.88059 -1.15483 -34.3136
LeftArm  -7.02538 14.701 -30.1631
LeftForeArm  6.62505 -1.85489 -16.4878
LeftHand  0.392419 -1.61798 -6.37636
RightShoulder  8.38021 11.7238 48.1947
RightArm  -10.1888 4.06655 9.18042
RightForeArm  -8.18727 11.7315 11.8645
RightHand  0.302853 1.03102 5.3893
LeftUpLeg  -9.57511 4.18131 8.52688
LeftLeg  76.0192 0.887495 5.39962
LeftFoot  1.07408 0.996469 -9.20798
LeftToes  2.52163e-011 5.65494e-011 -1.09494e-012
2212
root  -25.0485 34.7775 -34.3521 -167.341 31.1641 -178.894
RightUpLeg  -37.2928 -4.88725 11.9285
RightLeg  55.4309 -10.1061 -15.7645
RightFoot  -30.8891 0.0320775 1.4057
RightToes  1.22775e-009 1.2921e-014 -6.02303e-014
Spine  18.6275 -0.634925 16.9937
Spine1  5.14948 2.75214 0.552231
HEad  -17.6002 -13.5072 0.909145
LeftShoulder1  1.71793 -0.887815 -33.0733
LeftArm  -8.2521 17.2934 -27.9139
LeftForeArm  9.75308 -3.5508 -15.6676
LeftHand  0.424039 -1.67416 -6.83999
RightShoulder  7.54681 11.2165 44.8148
RightArm  2.54993 4.87827 8.99379
RightForeArm  -12.2583 21.1789 6.39412
RightHand  0.264903 1.97981 4.00885
LeftUpLeg  -18.7788 2.58324 11.0599
LeftLeg  80.104 0.0847506 2.46726
LeftFoot  -1.25734 0.558064 -6.2371
LeftToes  2.52163e-011 5.65494e-011 -1.09494e-012
2213
root  -24.2871 35.4413 -37.3 -168.628 32.763 179.862
RightUpLeg  -29.1325 -3.47859 7.85404
RightLeg  51.7318 -10.7689 -14.6516
RightFoot  -32.9617 0.738518 5.04246
RightToes  1.22775e-009 1.2921e-014 -6.02303e-014
Spine  18.6953 0.346711 16.6118
Spine1  2.57112 3.72991 -0.388487
HEad  -15.3849 -17.392 3.39652
LeftShoulder1  1.54967 -0.545538 -32.2225
LeftArm  -1.8506 20.6492 -25.1763
LeftForeArm  9.13384 -8.87415 -14.1852
LeftHand  0.276095 -2.40348 -3.9287
RightShoulder  6.97495 10.6673 42.9344
RightArm  -0.0790929 4.87682 8.35025
RightForeArm  -4.05851 30.0512 6.76978
RightHand  0.217898 2.18623 3.16069
LeftUpLeg  -26.2878 2.21651 12.5065
LeftLeg  77.1495 -0.330806 -0.371735
LeftFoot  -3.52112 0.531555 -7.46188
LeftToes  2.52163e-011 5.65494e-011 -1.09494e-012
2214
root  -23.378 36.3225 -40.3076 -170.675 33.7341 177.234
RightUpLeg  -20.0588 -2.4407 2.76609
RightLeg  45.5327 -11.1457 -12.2372
RightFoot  -32.653 1.49428 9.11105
RightToes  1.22775e-009 1.2921e-014 -6.02303e-014
Spine  17.8918 1.03739 14.2082
Spine1  0.636717 3.77238 -1.29295
HEad  -12.4333 -21.2901 5.44064
LeftShoulder1  1.37404 -0.145833 -31.595
LeftArm  6.22649 23.8897 -22.7781
LeftForeArm  1.69814 -15.3073 -10.8118
LeftHand  0.27623 -2.55925 -3.84044
RightShoulder  6.43995 10.0295 41.4147
RightArm  -2.72652 4.26749 8.8301
RightForeArm  0.996317 39.8167 9.27878
RightHand  0.193847 1.67977 3.03953
LeftUpLeg  -31.8643 2.4979 11.8517
LeftLeg  68.2449 -0.195039 0.217111
LeftFoot  -4.9157 0.446862 -7.4297
LeftToes  2.52163e-011 5.65494e-011 -1.09494e-012
2215
root  -22.4172 37.2325 -43.2489 -173.115 35.1895 173.803
RightUpLeg  -11.9984 -0.938034 -2.94812
RightLeg  39.5143 -9.95522 -8.97555
RightFoot  -28.9145 1.98898 14.0831
RightToes  1.22775e-009 1.2921e-014 -6.02303e-014
Spine  16.8585 2.11858 10.6897
Spine1  -0.397144 4.13843 -2.7143
HEad  -10.6669 -26.7235 8.37498
LeftShoulder1  1.28506 0.0267228 -30.8977
LeftArm  11.0395 26.6896 -21.1418
LeftForeArm  -6.7458 -20.7389 -6.70916
LeftHand  0.385391 -2.80973 -5.24904
RightShoulder  5.90486 9.16282 40.5081
RightArm  -3.58976 3.18837 9.46218
RightForeArm  5.42893 49.4562 12.7501
RightHand  0.14003 1.09526 2.4081
LeftUpLeg  -34.6485 3.74248 9.4156
LeftLeg  54.1106 1.50698 2.71636
LeftFoot  -5.3172 0.415856 -7.29172
LeftToes  2.52163e-011 5.65494e-011 -1.09494e-012
2216
root  -21.4913 37.9564 -46.0979 -174.413 37.6715 171.787
RightUpLeg  -6.68007 0.583541 -7.25302
RightLeg  35.737 -7.89029 -6.31976
RightFoot  -22.471 1.56768 17.5397
RightToes  1.22775e-009 1.2921e-014 -6.02303e-014
Spine  15.6915 3.45942 8.41547
Spine1  -0.747585 5.20648 -4.64274
HEad  -10.4652 -33.4572 11.4679
LeftShoulder1  1.18662 0.217812 -30.0395
LeftArm  9.7218 28.9591 -20.0658
LeftForeArm  -5.75448 -24.696 -5.57346
LeftHand  0.406954 -3.15523 -5.30211
RightShoulder  5.62481 8.63872 40.2332
RightArm  -2.95194 1.63973 9.38002
RightForeArm  12.0433 58.9807 17.9557
RightHand  0.089342 0.430313 1.74419
LeftUpLeg  -34.937 6.19671 7.47556
LeftLeg  36.3086 3.39055 3.03287
LeftFoot  -4.58112 0.524399 -8.40424
LeftToes  2.52163e-011 5.65494e-011 -1.09494e-012
2217
root  -20.6025 38.2626 -49.0823 -175.129 40.6196 170.93
RightUpLeg  -4.39698 0.843146 -10.6655
RightLeg  37.0438 -5.97561 -5.0863
RightFoot  -15.4434 0.380489 13.5059
RightToes  1.22775e-009 1.2921e-014 -6.02303e-014
Spine  13.4994 4.42132 7.30535
Spine1  0.109171 6.07795 -5.71819
HEad  -11.7062 -40.7159 14.7638
LeftShoulder1  1.114 0.341705 -29.1416
LeftArm  6.34949 31.9222 -19.1567
LeftForeArm  -0.213503 -28.4884 -6.17575
LeftHand  0.406111 -3.03522 -5.37573
RightShoulder  5.8119 8.87681 40.8182
RightArm  -1.14527 0.353945 8.46662
RightForeArm  20.9891 67.5285 26.3768
RightHand  0.0551787 -0.427118 1.35602
LeftUpLeg  -33.2175 11.802 4.66016
LeftLeg  18.726 0.302301 0.439082
LeftFoot  -0.663034 1.10365 -11.7362
LeftToes  2.52163e-011 5.65494e-011 -1.09494e-012
2218
root  -19.8299 37.9448 -52.1644 -176.04 43.9894 171.272
RightUpLeg  -4.54985 2.42108 -13.0376
RightLeg  43.8475 -5.03147 -5.45882
RightFoot  -8.98019 -0.250372 9.16219
RightToes  1.22775e-009 1.2921e-014 -6.02303e-014
Spine  12.0264 4.61421 7.28146
Spine1  0.472724 6.18399 -5.78816
HEad  -13.4559 -47.869 17.4303
LeftShoulder1  1.0946 0.331799 -28.4045
LeftArm  6.02285 36.0612 -18.1102
LeftForeArm  0.632619 -31.3123 -6.83386
LeftHand  0.392258 -2.83965 -5.32435
RightShoulder  5.85795 8.77076 41.5535
RightArm  1.59664 0.0586169 8.4367
RightForeArm  34.7002 74.3844 41.1773
RightHand  0.0694341 -1.08568 2.05477
LeftUpLeg  -30.6606 16.4263 4.44723
LeftLeg  10.0892 -0.736785 -3.08735
LeftFoot  2.41903 2.23148 -18.4778
LeftToes  2.52163e-011 5.65494e-011 -1.09494e-012
2219
root  -19.1437 37.3714 -54.9759 -178.771 48.1279 170.398
RightUpLeg  -6.99336 3.23488 -16.2065
RightLeg  54.3777 -4.63891 -7.32208
RightFoot  -9.59676 -0.198969 8.76007
RightToes  1.22775e-009 1.2921e-014 -6.02303e-014
Spine  12.8698 4.24728 4.84024
Spine1  0.358188 5.4644 -5.09564
HEad  -16.4514 -53.6724 19.3171
LeftShoulder1  1.08923 0.314597 -28.0416
LeftArm  8.23736 40.1853 -17.7265
LeftForeArm  -2.99885 -30.8546 -6.91299
LeftHand  0.435054 -2.45664 -6.25087
RightShoulder  5.79394 8.51552 42.0054
RightArm  4.59033 0.155136 9.92886
RightForeArm  55.835 78.3409 63.4692
RightHand  0.0733507 -1.6666 2.6081
LeftUpLeg  -31.3889 24.2352 0.419318
LeftLeg  17.403 -5.65111 -3.13588
LeftFoot  6.70406 2.13889 -13.6752
LeftToes  2.52163e-011 5.65494e-011 -1.09494e-012
